<svg xmlns="http://www.w3.org/2000/svg" xml:space="preserve" viewBox="0 0 514 480"><path fill="none" stroke="#000" stroke-linecap="round" stroke-linejoin="round" stroke-width="6" d="M256 142c-1 1 0 2 1 3 7 6 15 12 21 19 7 9 17 12 24 19 5 0 10 3 14 5 3 2 4 4 4 7l-1 22c0 4 3 7 6 8 5 0 11 2 17-2 2-1 3-3 3-6v-39c0-6 0-8-6-10-18-8-33-20-49-33-10-8-20-16-30-26-2-3-6-3-9 0a380 380 0 0 1-79 59c-4 2-6 4-6 9l1 173c0 2-1 4 1 6 6 0 9-5 13-8l6-6c4-6 9-7 16-7 9 0 18-2 24-9 4-4 6-9 6-15v-46c0-3-1-6-3-8"/><path fill="none" stroke="#000" stroke-linecap="round" stroke-linejoin="round" stroke-width="6" d="M244 258c-4 2-2 6-2 10v69c0 7 0 7 6 7h18c4 0 6-2 6-6l-1-17c-1-15 3-28 2-42l1-20m68-1c3 2 3 5 3 9v35l-1 51c0 2 1 5-2 5-2 1-3-1-4-2l-56-55-7-7m5-125-7 1h-29c-5 0-5 1-4 5l1 6v69c1 6 1 7 7 7h25c6 1 12 1 18-1h7c6 0 11 0 13-6"/><path fill="none" stroke="#000" stroke-linecap="round" stroke-linejoin="round" stroke-width="6" d="m255 144-26 24c-6 7-14 11-21 15l-11 4c-2 2-3 3-3 5l1 32 1 22c0 4 1 7-1 11v57c3 2 7 0 11-1l-1-49c0-2 0-5 2-6"/><path fill="none" stroke="#000" stroke-linecap="round" stroke-linejoin="round" stroke-width="7" d="M269 49c1-4-1-6-6-6h-10c-3 0-4 0-4 3l-1 25c0 3 1 5 4 5h13c4 0 4-3 4-6"/><path fill="none" stroke="#000" stroke-linecap="round" stroke-linejoin="round" stroke-width="6" d="M228 172c4 1 5 3 5 7l-1 39c0 6-2 8-7 8h-13c-5 0-10 2-15 4m105-40c7 2 7 8 7 14v3c0 3-2 5-5 5h-30l-1 13"/><path fill="none" stroke="#000" stroke-linecap="round" stroke-linejoin="round" stroke-width="7" d="M391 370c1 3 3 3 5 1l9-9c1-2 1-4-1-6l-18-16c-3-3-5-2-7 1l-7 7c-2 3-2 5 0 6l8 7"/><path fill="none" stroke="#000" stroke-linecap="round" stroke-linejoin="round" stroke-width="3" d="m249 398-1 20c0 4-3 7-6 7-6 0-12 0-17-2M117 301l-7-20c-2-6-8-10-15-7-1 2-4 2-6 2"/><path fill="none" stroke="#000" stroke-linecap="round" stroke-linejoin="round" stroke-width="2" d="M78 149c3 1 7 1 10 5 1 3 5 3 8 4l23 9-4 10"/><path fill="none" stroke="#000" stroke-linecap="round" stroke-linejoin="round" stroke-width="6" d="M207 185c-3 11-1 23-2 34 0 3 2 5 3 7"/><path fill="none" stroke="#000" stroke-linecap="round" stroke-linejoin="round" stroke-width="3" d="M276 67v7c0 6-3 9-9 9h-19"/><path fill="none" stroke="#000" stroke-linecap="round" stroke-linejoin="round" stroke-width="5" d="M270 411c4-3 9-3 14-4 2-1 3-2 2-5-2-6-3-7-9-5-2 0-5-1-7 1v1s0 0 0 0"/><path fill="none" stroke="#000" stroke-linecap="round" stroke-linejoin="round" stroke-width="3" d="M379 333c-7 3-10 10-15 15-2 1-1 7 1 9l13 13"/><path fill="none" stroke="#000" stroke-linecap="round" stroke-linejoin="round" stroke-width="5" d="M272 225c4 3 4 3 11 3h19c4 0 6 0 8 3m-21 27c1 6 6 10 10 14l14 18 5 4"/><path fill="none" stroke="#000" stroke-linecap="round" stroke-linejoin="round" stroke-width="2" d="M294 413c0 3 2 6 1 9l-27 4"/><path fill="none" stroke="#000" stroke-linecap="round" stroke-linejoin="round" stroke-width="6" d="M321 257c-2 3-2 6-2 9 0 10 2 19-1 28 0 3 3 6 3 10"/><path fill="none" stroke="#000" stroke-linecap="round" stroke-linejoin="round" stroke-width="2" d="M454 265c-4-1-8-1-11-4l-8-1h-13"/><path fill="none" stroke="#000" stroke-linecap="round" stroke-linejoin="round" stroke-width="6" d="M340 226c4 2 6 5 5 10v12c0 4-1 6-3 8"/><path fill="none" stroke="#000" stroke-linecap="round" stroke-linejoin="round" stroke-width="10" d="M303 184c-1 4-4 6-9 6l-20-1"/><path fill="none" stroke="#000" stroke-linecap="round" stroke-linejoin="round" stroke-width="3" d="m346 111 9 7c6 6 12 5 18-1l3-3"/><path fill="none" stroke="#000" stroke-linecap="round" stroke-linejoin="round" stroke-width="7" d="M417 249c0 2 2 3 4 3l28 3"/><path fill="none" stroke="#000" stroke-linecap="round" stroke-linejoin="round" stroke-width="5" d="M187 386c6-1 11 1 16 6l-4 8c-4 0-7-2-9-3-6-2-7-2-8 4-1 1-3 2 0 5 3 2 8 4 14 4l1 4"/><path fill="none" stroke="#000" stroke-linecap="round" stroke-linejoin="round" stroke-width="6" d="M230 227c2 1 3 3 3 6l-1 18c0 5-1 6-6 6h-16c-5 0-9-1-13-3"/><path fill="none" stroke="#000" stroke-linecap="round" stroke-linejoin="round" stroke-width="2" d="m291 395 1 7c1 7-2 10-9 10-2 1-4 0-6 2"/><path fill="none" stroke="#000" stroke-linecap="round" stroke-linejoin="round" stroke-width="6" d="m316 53-9 25-2 4"/><path fill="none" stroke="#000" stroke-linecap="round" stroke-linejoin="round" stroke-width="3" d="m296 88 28 9c3-4 3-10 6-14M92 235l11 1v17m0-20 1-13c0-4-1-5-4-5l-7 1"/><path fill="none" stroke="#000" stroke-linecap="round" stroke-linejoin="round" stroke-width="6" d="M425 145c2-2 1-4 0-5-4-7-4-7-11-3l-21 14"/><path fill="none" stroke="#000" stroke-linecap="round" stroke-linejoin="round" stroke-width="3" d="m189 83 6 12-27 16m243 133-2 16 10 2"/><path fill="none" stroke="#000" stroke-linecap="round" stroke-linejoin="round" stroke-width="6" d="M272 411c0 9-1 9 9 8 3 0 6 1 8-2M103 171c-4 3-9 2-14 2-3 1-6 0-9 3-2 2-5-1-7 1m19 124-3-6c-2-8-9-10-16-6l-3 3c4 5 3 12 8 16"/><path fill="none" stroke="#000" stroke-linecap="round" stroke-linejoin="round" stroke-width="2" d="M119 109c4 2 8 6 12 10 3 4 9 4 13 7l3 2-11 13"/><path fill="none" stroke="#000" stroke-linecap="round" stroke-linejoin="round" stroke-width="6" d="M409 307c2 3 5 4 8 5l16 7"/><path fill="none" stroke="#000" stroke-linecap="round" stroke-linejoin="round" stroke-width="3" d="M107 198c3-5 4-11 6-16-3-1-5-3-8-2"/><path fill="none" stroke="#000" stroke-linecap="round" stroke-linejoin="round" stroke-width="7" d="M77 162c1-4 5-3 6-2 7 4 15 4 20 10 2 2 6 3 10 0"/><path fill="none" stroke="#000" stroke-linecap="round" stroke-linejoin="round" stroke-width="3" d="m404 189 5 23c0 4 0 8 3 11l10-2"/><path fill="none" stroke="#000" stroke-linecap="round" stroke-linejoin="round" stroke-width="6" d="M411 289c7 4 16 5 22 12 2 2 6 0 9-3M79 177c2 5 7 4 11 6 2 1 5 3 8 3 3 1 5 2 5 6"/><path fill="none" stroke="#000" stroke-linecap="round" stroke-linejoin="round" stroke-width="7" d="m105 122-3-3v-1l5-5c3-2 4-3 7-1l21 20"/><path fill="none" stroke="#000" stroke-linecap="round" stroke-linejoin="round" stroke-width="6" d="M433 301c-2 2-5 2-7 3-6 0-11-1-17 2-2 1-4-2-7 0"/><path fill="none" stroke="#000" stroke-linecap="round" stroke-linejoin="round" stroke-width="5" d="m335 405-12 5c-2 0-5 2-6-2-3-6-2-8 2-10l7-2c4-1 3-3 2-6-2-3-2-6-7-5-8 3-8 3-10 6"/><path fill="none" stroke="#000" stroke-linecap="round" stroke-linejoin="round" stroke-width="3" d="M277 45c-2 3 0 7-1 11h-12"/><path fill="none" stroke="#000" stroke-linecap="round" stroke-linejoin="round" stroke-width="2" d="M456 214c-5 0-9 4-13 0-1-1-3 0-5 1l-15 3M324 59c-6 4-7 11-9 17l-1 4"/><path fill="none" stroke="#000" stroke-linecap="round" stroke-linejoin="round" stroke-width="3" d="m149 348-11-15-8 7"/><path fill="none" stroke="#000" stroke-linecap="round" stroke-linejoin="round" stroke-width="2" d="M383 148c1 5 6 9 9 14l8-5"/><path fill="none" stroke="#000" stroke-linecap="round" stroke-linejoin="round" stroke-width="3" d="m405 280-4 10c-2 4-1 5 4 7l2 1M256 51c-1 6-2 13 0 20"/><path fill="none" stroke="#000" stroke-linecap="round" stroke-linejoin="round" stroke-width="2" d="m417 145 5 8 12-6"/><path fill="none" stroke="#000" stroke-linecap="round" stroke-linejoin="round" stroke-width="3" d="m208 392-3 9c-1 4-5 5-9 4"/><path fill="none" stroke="#000" stroke-linecap="round" stroke-linejoin="round" stroke-width="10" d="M313 251c3 4 7 6 13 6h15"/><path fill="none" stroke="#000" stroke-linecap="round" stroke-linejoin="round" stroke-width="6" d="M95 247c-7-4-14-5-22-6l-8-2"/><path fill="none" stroke="#000" stroke-linecap="round" stroke-linejoin="round" stroke-width="7" d="m95 225-12 2c-6 0-12 2-18 4"/><path fill="none" stroke="#000" stroke-linecap="round" stroke-linejoin="round" stroke-width="6" d="M88 290c1-6 5-8 10-9 4 0 5 1 6 4l2 10 4 5m27 40v6l-27 15"/><path fill="none" stroke="#000" stroke-linecap="round" stroke-linejoin="round" stroke-width="2" d="M203 410c-3 8-3 8-10 5l-9-2"/><path fill="none" stroke="#000" stroke-linecap="round" stroke-linejoin="round" stroke-width="6" d="M118 340c-3 0-4 2-5 4l-8 10"/><path fill="none" stroke="#000" stroke-linecap="round" stroke-linejoin="round" stroke-width="7" d="M448 206c-10 1-19 3-28 6h-3"/><path fill="none" stroke="#000" stroke-linecap="round" stroke-linejoin="round" stroke-width="2" d="M85 282c-3-4-7-1-11 0l-4 2"/><path fill="none" stroke="#000" stroke-linecap="round" stroke-linejoin="round" stroke-width="7" d="m106 297-24 8c-4 2-5 5-6 9"/><path fill="none" stroke="#000" stroke-linecap="round" stroke-linejoin="round" stroke-width="6" d="m170 70 1-4c-7-2-12 3-16 7"/><path fill="none" stroke="#000" stroke-linecap="round" stroke-linejoin="round" stroke-width="7" d="M443 187c-9 3-19 4-29 6-2 0-2 2-2 4"/><path fill="none" stroke="#000" stroke-linecap="round" stroke-linejoin="round" stroke-width="6" d="M301 84c1-2 3-2 4-1 5 3 9 4 14 5l1 1"/><path fill="none" stroke="#000" stroke-linecap="round" stroke-linejoin="round" stroke-width="3" d="m116 324 9-6c4 5 8 9 11 15"/><path fill="none" stroke="#000" stroke-linecap="round" stroke-linejoin="round" stroke-width="6" d="M186 87c-1 8-8 10-14 13-2 1-4 2-4 5"/><path fill="none" stroke="#000" stroke-linecap="round" stroke-linejoin="round" stroke-width="6" d="M149 73c4 0 7 3 9 6 5 7 8 15 12 22"/><path fill="none" stroke="#000" stroke-linecap="round" stroke-linejoin="round" stroke-width="7" d="M84 228v14"/><path fill="none" stroke="#000" stroke-linecap="round" stroke-linejoin="round" stroke-width="2" d="m390 353 7 7-4 5m-155 37-4-1-2 14M375 92c-1-1-2-3-4-3-3 2-5 6-7 9"/><path fill="none" stroke="#000" stroke-linecap="round" stroke-linejoin="round" stroke-width="3" d="M180 67c0 1 1 2-2 3l-8 5"/><path fill="none" stroke="#000" stroke-linecap="round" stroke-linejoin="round" stroke-width="2" d="M426 326c-3-5-8-6-12-7"/><path fill="none" stroke="#000" stroke-linecap="round" stroke-linejoin="round" stroke-width="6" d="M121 327c1 1 3 0 4 2-2 4-7 5-7 10 2 4 7 7 8 12"/><path fill="none" stroke="#000" stroke-linecap="round" stroke-linejoin="round" stroke-width="2" d="M399 299c-4 2-4 7-6 10 3 1 5 4 8 4m-79 78c-4 1-6 5-10 5M174 74l6 10-8 6 2 3"/><path fill="none" stroke="#000" stroke-linecap="round" stroke-linejoin="round" stroke-width="3" d="m331 383 3 6c2 7 1 10-6 12"/><path fill="none" stroke="#000" stroke-linecap="round" stroke-linejoin="round" stroke-width="5" d="m324 226-5 2c-3 0-4 1-6 3"/><path fill="none" stroke="#000" stroke-linecap="round" stroke-linejoin="round" stroke-width="6" d="M409 124c7 0 9 1 11 10"/><path fill="none" stroke="#000" stroke-linecap="round" stroke-linejoin="round" stroke-width="3" d="M390 364c-5 1-6 5-9 8l8 7m28-177c-3 2-6 1-9 2"/><path fill="none" stroke="#000" stroke-linecap="round" stroke-linejoin="round" stroke-width="2" d="M102 345c-4 0-6 4-8 6"/><path fill="none" stroke="#000" stroke-linecap="round" stroke-linejoin="round" stroke-width="3" d="m122 96 7 6-7 9m282 13 4 7c2 1 3 0 4-1"/><path fill="none" stroke="#000" stroke-linecap="round" stroke-linejoin="round" stroke-width="2" d="M338 400c3 1 2 5 5 7m99-206c-1-6-1-7-6-5"/><path fill="none" stroke="#000" stroke-linecap="round" stroke-linejoin="round" stroke-width="8" d="M100 353c7 2 11 9 10 15"/><path fill="none" stroke="#000" stroke-linecap="round" stroke-linejoin="round" stroke-width="2" d="M185 390c2-1 4 2 7 2M171 60c-1 1-2 3-1 5"/><path fill="none" stroke="#000" stroke-linecap="round" stroke-linejoin="round" stroke-width="3" d="M386 349c-2-1-3-2-4-1l-3 3m-241-5 6 2M91 232v6"/><path fill="none" stroke="#000" stroke-linecap="round" stroke-linejoin="round" stroke-width="6" d="M231 396c-4 1-3 4-3 7l-2 10c-1 4 0 6 4 6l9 1c2 0 4 0 3-2l2-17c-1-2-1-4-4-4l-8-1M369 81c-7 6-12 14-17 21l-1 1c-1 7 6 7 9 11 1 2 4 2 6-1l16-19v-4c-4-4-7-9-13-9"/></svg>