<?xml version="1.0" encoding="UTF-8"?>
<svg version="1.1" xmlns="http://www.w3.org/2000/svg" width="512" height="512">
<path d="M0 0 C63.36 0 126.72 0 192 0 C192.16121214 52.23721046 192.16121214 52.23721046 192.1953125 74.23632812 C192.21898705 89.38718116 192.24671989 104.53794479 192.30175781 119.6887207 C192.34183385 130.72614059 192.36748186 141.76348749 192.37635398 152.80097812 C192.38153379 158.63630178 192.39356459 164.47141678 192.42292023 170.30667305 C192.45041875 175.81833084 192.45837672 181.32969743 192.45243073 186.84141731 C192.45351578 188.84585665 192.4612617 190.8503075 192.4768219 192.85468674 C192.7672536 232.25678228 180.38902153 272.10996872 157 304 C156.60425781 304.54092285 156.20851563 305.0818457 155.80078125 305.63916016 C151.41218053 311.59921752 146.9650832 317.35909375 141.57421875 322.4609375 C139.94160051 324.05709528 138.51138588 325.7364767 137.0625 327.5 C133.73113389 331.44503881 129.95709869 334.69782182 126 338 C125.19820313 338.68964844 124.39640625 339.37929688 123.5703125 340.08984375 C97.50965394 362.09060743 66.38336313 375.72833669 33 382 C31.36998047 382.33644531 31.36998047 382.33644531 29.70703125 382.6796875 C19.56412695 384.55657473 10.73394647 384 0 384 C0 362.55 0 341.1 0 319 C7.26 318.34 14.52 317.68 22 317 C32.87599861 314.51597563 42.92941972 311.76349891 53 307 C54.4540625 306.34064453 54.4540625 306.34064453 55.9375 305.66796875 C68.04768752 299.94401293 78.35697262 292.25039597 88 283 C88.83273437 282.23042969 89.66546875 281.46085937 90.5234375 280.66796875 C97.08624911 274.41815277 102.12180545 267.57156066 107 260 C107.54398437 259.19046875 108.08796875 258.3809375 108.6484375 257.546875 C121.38930023 237.7277552 124.89754609 215.12699297 127 192 C85.09 192 43.18 192 0 192 C0 128.64 0 65.28 0 0 Z " fill="#030104" transform="translate(320,64)"/>
<path d="M0 0 C63.36 0 126.72 0 192 0 C192.16121214 52.23721046 192.16121214 52.23721046 192.1953125 74.23632812 C192.21898705 89.38718116 192.24671989 104.53794479 192.30175781 119.6887207 C192.34183385 130.72614059 192.36748186 141.76348749 192.37635398 152.80097812 C192.38153379 158.63630178 192.39356459 164.47141678 192.42292023 170.30667305 C192.45041875 175.81833084 192.45837672 181.32969743 192.45243073 186.84141731 C192.45351578 188.84585665 192.4612617 190.8503075 192.4768219 192.85468674 C192.7672536 232.25678228 180.38902153 272.10996872 157 304 C156.60425781 304.54092285 156.20851562 305.0818457 155.80078125 305.63916016 C151.41218053 311.59921752 146.9650832 317.35909375 141.57421875 322.4609375 C139.94160051 324.05709528 138.51138588 325.7364767 137.0625 327.5 C133.73113389 331.44503881 129.95709869 334.69782182 126 338 C125.19820313 338.68964844 124.39640625 339.37929688 123.5703125 340.08984375 C97.50965394 362.09060743 66.38336313 375.72833669 33 382 C31.36998047 382.33644531 31.36998047 382.33644531 29.70703125 382.6796875 C19.56412695 384.55657473 10.73394647 384 0 384 C0 362.55 0 341.1 0 319 C7.26 318.34 14.52 317.68 22 317 C32.87599861 314.51597563 42.92941972 311.76349891 53 307 C54.4540625 306.34064453 54.4540625 306.34064453 55.9375 305.66796875 C68.04768752 299.94401293 78.35697262 292.25039597 88 283 C88.83273438 282.23042969 89.66546875 281.46085937 90.5234375 280.66796875 C97.08624911 274.41815277 102.12180545 267.57156066 107 260 C107.54398437 259.19046875 108.08796875 258.3809375 108.6484375 257.546875 C121.38930023 237.7277552 124.89754609 215.12699297 127 192 C85.09 192 43.18 192 0 192 C0 128.64 0 65.28 0 0 Z " fill="#030104" transform="translate(0,64)"/>
</svg>
