<?xml version="1.0" encoding="UTF-8"?>
<svg version="1.1" xmlns="http://www.w3.org/2000/svg" width="512" height="512">
<path d="M0 0 C0 24.42 0 48.84 0 74 C-8.58 74.99 -17.16 75.98 -26 77 C-64.8871321 85.41417478 -99.6300686 105.98568959 -121.6875 139.8125 C-137.7721875 165.31669365 -143.36595712 189.70850688 -146 220 C-97.82 220 -49.64 220 0 220 C0 292.6 0 365.2 0 440 C-72.6 440 -145.2 440 -220 440 C-220.16121214 380.61124002 -220.16121214 380.61124002 -220.1953125 355.6015625 C-220.20314192 349.88834589 -220.21122326 344.17512971 -220.21972656 338.46191406 C-220.22078156 337.7460282 -220.22183655 337.03014234 -220.22292352 336.29256296 C-220.24023791 324.79195529 -220.27172649 313.29142904 -220.30861118 301.79086937 C-220.34624973 289.95499902 -220.36828376 278.11917078 -220.37635398 266.28324306 C-220.38131118 259.64916269 -220.39356688 253.01522967 -220.42292023 246.38119888 C-220.45041583 240.11524794 -220.45837724 233.84955314 -220.45243073 227.58354759 C-220.4535159 225.30462303 -220.46126347 223.02568835 -220.4768219 220.74681664 C-220.60937363 200.29909987 -218.66356908 179.78744057 -212.75 160.125 C-212.4519043 159.10438477 -212.15380859 158.08376953 -211.84667969 157.03222656 C-201.43290806 122.33046837 -182.92687579 92.10032358 -158 66 C-157.12730469 65.07445313 -156.25460938 64.14890625 -155.35546875 63.1953125 C-148.43187081 56.03856265 -140.96502627 49.94823381 -133 44 C-132.42878418 43.56800293 -131.85756836 43.13600586 -131.26904297 42.69091797 C-122.29283836 35.92865592 -112.92311785 30.26033237 -103 25 C-102.35305176 24.65195312 -101.70610352 24.30390625 -101.03955078 23.9453125 C-69.80540303 7.23264808 -35.23522421 0 0 0 Z " fill="#000000" transform="translate(220,36)"/>
<path d="M0 0 C0 24.42 0 48.84 0 74 C-8.25 74.99 -16.5 75.98 -25 77 C-54.58211111 82.91642222 -80.36624839 95.87378509 -102 117 C-103.16402344 118.07121094 -103.16402344 118.07121094 -104.3515625 119.1640625 C-132.76090863 145.96722652 -141.51165707 182.59714225 -146 220 C-97.82 220 -49.64 220 0 220 C0 292.6 0 365.2 0 440 C-72.6 440 -145.2 440 -220 440 C-220.1209091 382.6174355 -220.1209091 382.6174355 -220.14648438 358.4453125 C-220.15235637 352.92350233 -220.15841735 347.40169242 -220.16479492 341.87988281 C-220.16558617 341.18798843 -220.16637741 340.49609405 -220.16719264 339.78323317 C-220.18017558 328.67056785 -220.20379039 317.55794999 -220.23145839 306.44531263 C-220.25969533 295.00720081 -220.27599052 283.56912713 -220.28226548 272.13097942 C-220.28614918 265.72048297 -220.29516492 259.31009342 -220.31719017 252.8996315 C-220.33782477 246.84382726 -220.34378039 240.78817211 -220.33932304 234.73233604 C-220.34013636 232.53082018 -220.34593903 230.32929838 -220.35761642 228.12781334 C-220.45864299 208.06721694 -219.34278571 187.61729154 -214.25 168.125 C-213.862677 166.59190186 -213.862677 166.59190186 -213.4675293 165.02783203 C-204.39463892 130.1111979 -187.49241635 98.76375024 -163.05078125 72.23828125 C-161.12555454 70.13703381 -159.27921697 67.98680694 -157.4375 65.8125 C-153.93161147 61.80348851 -150.06693751 58.42550777 -146 55 C-145.08734375 54.18789062 -144.1746875 53.37578125 -143.234375 52.5390625 C-103.99141582 17.88318887 -51.97469969 0 0 0 Z " fill="#000000" transform="translate(512,36)"/>
</svg>
