<?xml version="1.0" standalone="no"?>
<!DOCTYPE svg PUBLIC "-//W3C//DTD SVG 20010904//EN"
 "http://www.w3.org/TR/2001/REC-SVG-20010904/DTD/svg10.dtd">
<svg version="1.0" xmlns="http://www.w3.org/2000/svg"
 width="512.000000pt" height="512.000000pt" viewBox="0 0 512.000000 512.000000"
 preserveAspectRatio="xMidYMid meet">

<g transform="translate(0.000000,512.000000) scale(0.100000,-0.100000)"
fill="white" stroke="none">
<path d="M2505 4375 c-25 -24 -25 -26 -25 -215 0 -229 6 -250 78 -250 22 0 41
8 57 25 25 24 25 25 25 220 0 195 0 196 -25 220 -15 16 -36 25 -55 25 -19 0
-40 -9 -55 -25z"/>
<path d="M3755 3861 c-16 -10 -83 -73 -147 -139 -100 -102 -118 -125 -118
-152 0 -41 39 -80 81 -80 26 0 50 19 159 126 71 69 134 139 140 155 16 37 -1
82 -36 98 -34 15 -44 14 -79 -8z"/>
<path d="M1269 3857 c-25 -19 -40 -55 -33 -81 3 -13 67 -85 143 -160 109 -108
143 -136 165 -136 38 0 76 41 76 82 0 28 -17 49 -138 170 -116 116 -143 138
-167 138 -17 0 -37 -6 -46 -13z"/>
<path d="M2388 3625 c-206 -33 -408 -132 -564 -277 -243 -228 -372 -571 -336
-895 15 -139 42 -234 101 -358 194 -408 635 -657 1078 -607 139 15 234 42 358
101 227 108 402 285 509 512 162 344 133 738 -75 1059 -53 81 -214 243 -294
295 -235 154 -503 212 -777 170z m402 -174 c317 -83 577 -341 662 -661 32
-122 32 -338 0 -460 -74 -276 -279 -512 -538 -618 -125 -52 -206 -67 -354 -67
-148 0 -229 15 -354 67 -259 106 -464 342 -538 618 -32 121 -32 337 0 460 92
344 376 609 727 676 101 19 289 12 395 -15z"/>
<path d="M3945 2628 c-28 -16 -35 -28 -35 -68 0 -73 20 -80 239 -80 192 0 221
6 240 47 17 37 13 62 -14 88 -24 25 -25 25 -217 25 -125 -1 -200 -5 -213 -12z"/>
<path d="M745 2605 c-27 -26 -31 -49 -16 -88 16 -42 52 -49 254 -45 165 3 187
5 206 22 28 26 29 88 1 116 -19 19 -33 20 -220 20 -200 0 -201 0 -225 -25z"/>
<path d="M1378 1482 c-111 -111 -138 -143 -138 -166 0 -34 49 -86 81 -86 35 0
309 277 309 312 0 42 -36 78 -78 78 -33 0 -47 -11 -174 -138z"/>
<path d="M3511 1594 c-41 -52 -32 -67 122 -221 100 -101 150 -143 166 -143 12
0 36 14 53 30 51 51 39 74 -115 228 -122 120 -137 132 -170 132 -27 0 -41 -7
-56 -26z"/>
<path d="M2514 1202 c-29 -19 -34 -56 -34 -242 0 -189 0 -191 25 -215 33 -33
70 -32 106 4 l29 29 0 187 c0 225 -6 245 -80 245 -19 0 -40 -4 -46 -8z"/>
</g>
</svg>
